<svg xmlns="http://www.w3.org/2000/svg" width="1200" height="630" viewBox="0 0 1200 630" role="img" aria-labelledby="title desc">
  <title id="title">DEALIoT, DEALHost, DEALData</title>
  <desc id="desc">Social preview card for the DEAL suite.</desc>
  <defs>
    <radialGradient id="a" cx="18%" cy="18%" r="70%">
      <stop offset="0" stop-color="#0196d0" stop-opacity="0.42"/>
      <stop offset="0.55" stop-color="#14b8c5" stop-opacity="0.24"/>
      <stop offset="1" stop-color="#f7fcff" stop-opacity="0"/>
    </radialGradient>
    <linearGradient id="b" x1="0" x2="1" y1="0" y2="1">
      <stop offset="0" stop-color="#ffffff"/>
      <stop offset="1" stop-color="#eef7fb"/>
    </linearGradient>
  </defs>
  <rect width="1200" height="630" fill="#f7fcff"/>
  <circle cx="990" cy="82" r="360" fill="url(#a)" opacity="0.9"/>
  <circle cx="150" cy="540" r="280" fill="#4aa3ff" opacity="0.16"/>
  <rect x="70" y="70" width="1060" height="490" rx="34" fill="url(#b)" opacity="0.98" stroke="#0196d0" stroke-opacity="0.16"/>
  <circle cx="166" cy="168" r="48" fill="#0196d0"/>
  <text x="166" y="185" text-anchor="middle" font-family="Trebuchet MS, sans-serif" font-size="42" font-weight="900" fill="#ffffff">D</text>
  <text x="246" y="152" font-family="Trebuchet MS, sans-serif" font-size="54" font-weight="900" fill="#0b1424">DEAL suite</text>
  <text x="246" y="200" font-family="Trebuchet MS, sans-serif" font-size="24" font-weight="700" fill="#5c667a">DEALIoT / DEALHost / DEALData</text>
  <text x="90" y="330" font-family="Trebuchet MS, sans-serif" font-size="58" font-weight="900" fill="#0b1424">IoT data ecosystems that scale.</text>
  <text x="94" y="398" font-family="Trebuchet MS, sans-serif" font-size="26" fill="#5c667a">Real-time ingestion, governed sharing and compliant operations.</text>
  <g font-family="Trebuchet MS, sans-serif" font-size="22" font-weight="700" fill="#ffffff">
    <rect x="94" y="462" width="174" height="50" rx="25" fill="#0196d0"/>
    <text x="181" y="497" text-anchor="middle">MQTT</text>
    <rect x="286" y="462" width="174" height="50" rx="25" fill="#0b1424"/>
    <text x="373" y="497" text-anchor="middle">Kafka</text>
    <rect x="478" y="462" width="174" height="50" rx="25" fill="#14b8c5"/>
    <text x="565" y="497" text-anchor="middle">Flink</text>
    <rect x="670" y="462" width="210" height="50" rx="25" fill="#24364f"/>
    <text x="775" y="497" text-anchor="middle">Kubernetes</text>
  </g>
</svg>
